# AST/ASF file generated using VICON BodyLanguage
# -----------------------------------------------
:version 1.10
:name VICON
:units
  mass 1.0
  length 0.45
  angle deg
:documentation
   .ast/.asf automatically generated from VICON data using
   VICON BodyBuilder and BodyLanguage model FoxedUp or BRILLIANT.MOD
:root
   order TX TY TZ RX RY RZ
   axis XYZ
   position 0 0 0  
   orientation 0 0 0 
:bonedata
  begin
     id 1 
     name lhipjoint
     direction 0.630305 -0.712092 0.309259 
     length 2.29033 
     axis 0 0 0  XYZ
  end
  begin
     id 2 
     name lfemur
     direction 0.34202 -0.939693 0  
     length 6.43538  
     axis 0 0 20  XYZ
    dof rx ry rz
    limits (-160.0 20.0)
           (-70.0 70.0)
           (-60.0 70.0)
  end
  begin
     id 3 
     name ltibia
     direction 0.34202 -0.939693 0   
     length 7.43097   
     axis 0 0 20   XYZ
    dof rx
    limits (-10.0 170.0)
  end
  begin
     id 4 
     name lfoot
     direction 0.0334653 -0.0919451 0.995202   
     length 1.78438   
     axis -90 7.62852e-016 20   XYZ
    dof rx rz
    limits (-45.0 90.0)
           (-70.0 20.0)
  end
  begin
     id 5 
     name ltoes
     direction 1.53535e-011 -4.21933e-011 1   
     length 0.90832   
     axis -90 7.62852e-016 20   XYZ
    dof rx
    limits (-90.0 20.0)
  end
  begin
     id 6 
     name rhipjoint
     direction -0.682059 -0.67077 0.291312   
     length 2.43143  
     axis 0 0 0  XYZ 
  end
  begin
     id 7 
     name rfemur
     direction -0.34202 -0.939693 0   
     length 6.63488   
     axis 0 0 -20   XYZ
    dof rx ry rz
    limits (-160.0 20.0)
           (-70.0 70.0)
           (-70.0 60.0)
  end
  begin
     id 8 
     name rtibia
     direction -0.34202 -0.939693 0   
     length 6.86532   
     axis 0 0 -20   XYZ
    dof rx
    limits (-10.0 170.0)
 end
 begin
     id 9 
     name rfoot
     direction -0.105199 -0.289033 0.951521   
     length 1.77126  
     axis -90 -7.62852e-016 -20   XYZ
    dof rx rz
    limits (-45.0 90.0)
           (-20.0 70.0)
  end
  begin
     id 10 
     name rtoes
     direction -1.53551e-011 -4.21978e-011 1   
     length 0.889273   
     axis -90 -7.62852e-016 -20   XYZ
    dof rx
    limits (-90.0 20.0)
  end
  begin
     id 11 
     name lowerback
     direction -0.0514305 0.998089 0.034245   
     length 2.02077   
     axis 0 0 0   XYZ
    dof rx ry rz
    limits (-20.0 45.0)
           (-30.0 30.0)
           (-30.0 30.0)
  end
  begin
     id 12 
     name upperback
     direction 0.0203189 0.999449 -0.0262315   
     length 2.01413   
     axis 0 0 0   XYZ
    dof rx ry rz
    limits (-20.0 45.0)
           (-30.0 30.0)
           (-30.0 30.0)
  end
  begin
     id 13 
     name thorax
     direction 0.0452736 0.998142 -0.0407729   
     length 2.02986   
     axis 0 0 0   XYZ
    dof rx ry rz
    limits (-20.0 45.0)
           (-30.0 30.0)
           (-30.0 30.0)
  end
  begin
     id 14 
     name lowerneck
     direction -0.0180464 0.999645 -0.0195774   
     length 1.59034   
     axis 0 0 0   XYZ
    dof rx ry rz
    limits (-20.0 45.0)
           (-30.0 30.0)
           (-30.0 30.0)
  end
  begin
     id 15 
     name upperneck
     direction 0.0732272 0.979935 -0.18538   
     length 1.57486   
     axis 0 0 0   XYZ
    dof rx ry rz
    limits (-20.0 45.0)
           (-30.0 30.0)
           (-30.0 30.0)
  end
  begin
     id 16
     name head
     direction 0.0252963 0.997909 -0.059472  
     length 1.60334  
     axis 0 0 0   XYZ
    dof rx ry rz
    limits (-20.0 45.0)
           (-30.0 30.0)
           (-30.0 30.0)
  end
  begin
     id 17 
     name lclavicle
     direction 0.943819 0.330449 0.00315172  
     length 3.50322  
     axis 0 0 0   XYZ
    dof ry rz
    limits (-20.0 10.0)
           (0.0 20.0)
  end
  begin
     id 18 
     name lhumerus
     direction 1 -4.48949e-011 2.22502e-028   
     length 4.63208   
     axis 180 -30 -90   XYZ
    dof rx ry rz
    limits (-60.0 90.0)
           (-90.0 90.0)
           (-90.0 90.0)
  end
  begin
     id 19
     name lradius
     direction 1 -4.48967e-011 -4.10197e-027   
     length 3.41924   
     axis 180 -30 -90   XYZ
    dof rx
    limits (-10.0 170.0)
  end
  begin
     id 20
     name lwrist
     direction 1 -4.48987e-011 -1.24264e-027   
     length 1.70962   
     axis 2.50585e-015 90 90   XYZ
    dof ry
    limits (-180.0 0.0)
 end
  begin
     id 21 
     name lhand
     direction 1 -4.48983e-011 -2.48528e-027   
     length 0.62537   
     axis 1.58582e-015 90 90   XYZ
    dof rx rz
    limits (-90.0 90.0)
           (-45.0 45.0)
  end
  begin
     id 22 
     name lfingers
     direction 1 -4.48896e-011 -4.97056e-027   
     length 0.50419   
     axis 3.17164e-015 90 90   XYZ
    dof rx
    limits (0.0 90.0)
  end
  begin
     id 23
     name lthumb
     direction 0.707107 -6.34803e-011 0.707107   
     length 0.723919   
     axis -90 45 2.85299e-015   XYZ
    dof rx rz
    limits (-45.0 45.0)
           (-45.0 45.0)
  end
  begin
     id 24 
     name rclavicle
     direction -0.964499 0.260664 -0.0423695   
     length 3.91997  
     axis 0 0 0   XYZ 
    dof ry rz
    limits (-10.0 20.0)
           (-20.0 0.0)
  end
  begin
     id 25 
     name rhumerus
     direction -1 -4.48957e-011 -1.98656e-027  
     length 4.4064   
     axis 180 30 90   XYZ
    dof rx ry rz
    limits (-90.0 60.0)
           (-90.0 90.0)
           (-90.0 90.0)
  end
  begin
     id 26 
     name rradius
     direction -1 -4.48968e-011 1.96972e-027   
     length 3.44675   
     axis 180 30 90   XYZ
    dof rx
    limits (-10.0 170.0)
  end
  begin
     id 27 
     name rwrist
     direction -1 -4.48974e-011 -1.24264e-027   
     length 1.72338   
     axis 2.50585e-015 -90 -90   XYZ
    dof ry
    limits (-180.0 0.0)
  end
  begin
     id 28
     name rhand
     direction -1 -4.48901e-011 -2.48528e-027   
     length 0.513674   
     axis 1.58582e-015 -90 -90   XYZ
    dof rx rz
    limits (-90.0 90.0)
           (-45.0 45.0)
  end
  begin
     id 29
     name rfingers
     direction -1 -4.48946e-011 -4.97056e-027   
     length 0.414137   
     axis 3.17164e-015 -90 -90   XYZ
    dof rx
    limits (0.0 90.0)
  end
  begin
     id 30
     name rthumb
     direction -0.707107 -6.34859e-011 0.707107   
     length 0.59462   
     axis -90 -45 -2.85299e-015   XYZ
    dof rx rz
    limits (-45.0 45.0)
           (-45.0 45.0)
  end
:hierarchy
  begin
    root lhipjoint rhipjoint lowerback
    lhipjoint lfemur
    lfemur ltibia
    ltibia lfoot
    lfoot ltoes
    rhipjoint rfemur
    rfemur rtibia
    rtibia rfoot
    rfoot rtoes
    lowerback upperback
    upperback thorax
    thorax lowerneck lclavicle rclavicle
    lowerneck upperneck
    upperneck head
    lclavicle lhumerus
    lhumerus lradius
    lradius lwrist
    lwrist lhand lthumb
    lhand lfingers
    rclavicle rhumerus
    rhumerus rradius
    rradius rwrist
    rwrist rhand rthumb
    rhand rfingers
  end

#!OML:ASF E:\inclinewalkrobotboard\Project 1\Capture day 1\Session 1\subject1.ASF
:FULLY-SPECIFIED
:DEGREES
91
root 11.3326 16.9875 -28.935 9.50346 -4.17723 -3.48963
lowerback 2.22692 0.522273 -9.11831
upperback 4.16544 0.680913 -0.336511
thorax 2.9971 0.0684577 4.76271
lowerneck -8.5885 -0.702001 -3.367
upperneck 25.9602 -2.36536 7.71936
head 9.72319 -0.616095 3.02083
rclavicle 7.15625e-015 6.36111e-015
rhumerus -38.7797 -17.9329 -73.2515
rradius 23.8288
rwrist 19.3872
rhand -12.4723 -36.5099
rfingers 7.12502
rthumb 13.6018 -66.0455
lclavicle 7.15625e-015 6.36111e-015
lhumerus -14.3713 -11.4282 90.5829
lradius 19.2358
lwrist -22.1162
lhand -23.8707 -19.685
lfingers 7.12502
lthumb 2.60224 10.2788
rfemur -27.5872 7.40968 11.9525
rtibia 27.4678
rfoot -13.5103 -9.46508
rtoes -37.8641
lfemur -13.3716 -10.4626 -16.5998
ltibia 19.3167
lfoot -22.7721 14.7309
ltoes -64.6654
92
root 11.3047 16.9845 -28.8204 9.45964 -4.02105 -3.82823
lowerback 2.2672 0.420806 -8.79365
upperback 4.17518 0.542037 -0.283757
thorax 3.00336 0.00765149 4.63553
lowerneck -8.41679 -0.768734 -3.53032
upperneck 26.0858 -2.53506 8.07913
head 9.75179 -0.675871 3.16151
rclavicle 8.34896e-015 -3.49861e-014
rhumerus -39.5749 -18.9041 -72.5732
rradius 23.8432
rwrist 18.4826
rhand -10.0741 -37.4566
rfingers 7.12502
rthumb 15.9123 -66.8228
lclavicle 8.34896e-015 -3.49861e-014
lhumerus -14.4251 -11.5203 90.7645
lradius 19.3566
lwrist -22.4625
lhand -24.1042 -19.9734
lfingers 7.12502
lthumb 2.37668 9.99306
rfemur -28.4211 7.60402 12.0985
rtibia 27.1559
rfoot -12.4361 -10.0452
rtoes -37.7692
lfemur -12.9783 -10.4418 -16.1446
ltibia 19.3793
lfoot -22.9399 14.8271
ltoes -64.9413
93
root 11.2797 16.9698 -28.6727 9.19597 -3.90484 -3.44115
lowerback 2.10081 0.335347 -9.11112
upperback 4.27781 0.454611 -0.418079
thorax 3.22135 -0.0560298 4.67375
lowerneck -8.15614 -0.827305 -3.70511
upperneck 26.1132 -2.70492 8.5112
head 9.72978 -0.732335 3.32759
rclavicle 3.18055e-015 -2.38542e-014
rhumerus -40.4814 -19.8924 -71.8845
rradius 23.3329
rwrist 19.3921
rhand -9.82784 -37.7757
rfingers 7.12502
rthumb 16.1494 -67.1229
lclavicle 3.18055e-015 -2.38542e-014
lhumerus -14.5369 -11.516 90.9857
lradius 19.5281
lwrist -22.9359
lhand -23.8047 -20.4327
lfingers 7.12502
lthumb 2.66596 9.53036
rfemur -28.7368 7.34231 11.5084
rtibia 26.6722
rfoot -11.5865 -10.2232
rtoes -37.7028
lfemur -12.0549 -10.7209 -16.8427
ltibia 19.3366
lfoot -23.4917 14.6312
ltoes -64.7982
94
root 11.2489 16.9563 -28.543 9.18983 -3.90844 -3.12168
lowerback 2.06569 0.312109 -9.44899
upperback 4.24357 0.427319 -0.482521
thorax 3.21236 -0.0775421 4.79547
lowerneck -6.89748 -1.02921 -4.94692
upperneck 25.2122 -3.12678 10.07
head 9.23231 -0.931286 4.02541
rclavicle 5.56597e-015 0
rhumerus -41.3349 -20.5684 -71.3462
rradius 22.6401
rwrist 20.9884
rhand -10.7223 -36.849
rfingers 7.12502
rthumb 15.288 -66.2639
lclavicle 5.56597e-015 0
lhumerus -14.5919 -11.9235 91.3305
lradius 19.6321
lwrist -23.1232
lhand -23.52 -20.0625
lfingers 7.12502
lthumb 2.94092 9.89695
rfemur -29.5415 7.15578 10.9505
rtibia 26.4291
rfoot -10.7313 -10.5641
rtoes -37.7956
lfemur -11.4887 -10.4483 -17.2519
ltibia 19.2201
lfoot -23.5756 14.3608
ltoes -64.9006
95
root 11.2032 16.9431 -28.3912 8.9691 -2.86931 -2.82518
lowerback 2.11496 -0.0185494 -9.65579
upperback 4.36189 -0.00974587 -0.473414
thorax 3.38073 -0.3132 4.91744
lowerneck -7.05263 -1.05833 -4.83454
upperneck 25.4515 -3.22482 10.1581
head 9.3553 -0.950645 4.03537
rclavicle -6.36111e-015 4.77083e-015
rhumerus -42.1543 -20.9591 -71.0044
rradius 22.3657
rwrist 21.2898
rhand -10.8553 -35.7789
rfingers 7.12502
rthumb 15.1598 -65.2036
lclavicle -6.36111e-015 4.77083e-015
lhumerus -14.5309 -13.004 91.7101
lradius 19.5108
lwrist -23.1229
lhand -23.7391 -19.7583
lfingers 7.12502
lthumb 2.72929 10.204
rfemur -29.3419 6.62886 10.4236
rtibia 25.47
rfoot -10.0539 -11.5676
rtoes -36.9002
lfemur -10.8339 -10.9352 -17.5178
ltibia 19.3047
lfoot -23.3558 14.1071
ltoes -65.3948
96
root 11.1492 16.9333 -28.2344 8.53354 -1.74954 -2.5546
lowerback 2.40085 -0.380283 -9.87063
upperback 4.54595 -0.513157 -0.40934
thorax 3.50044 -0.583796 5.10061
lowerneck -8.94536 -0.976189 -3.41071
upperneck 27.2355 -3.03057 8.45947
head 10.3139 -0.827713 3.25655
rclavicle 3.97569e-016 3.18055e-015
rhumerus -42.8806 -21.6204 -70.4193
rradius 21.8704
rwrist 22.1007
rhand -11.2776 -35.0291
rfingers 7.12502
rthumb 14.7531 -64.484
lclavicle 3.97569e-016 3.18055e-015
lhumerus -14.598 -14.9001 92.3197
lradius 20.1909
lwrist -20.1148
lhand -21.6658 -17.1511
lfingers 7.12502
lthumb 4.73149 12.7761
rfemur -28.713 6.03733 10.015
rtibia 24.3067
rfoot -9.25744 -12.4948
rtoes -35.441
lfemur -9.88259 -11.5011 -17.7874
ltibia 19.4722
lfoot -23.7777 13.1778
ltoes -65.0631
